# AST/ASF file generated using VICON BodyLanguage
# -----------------------------------------------
:version 1.10
:name VICON
:units
  mass 1.0
  length 0.45
  angle deg
:documentation
   .ast/.asf automatically generated from VICON data using
   VICON BodyBuilder and BodyLanguage model FoxedUp or BRILLIANT.MOD
:root
   order TX TY TZ RX RY RZ
   axis XYZ
   position 0 0 0  
   orientation 0 0 0 
:bonedata
  begin
     id 1 
     name lhipjoint
     direction 0.558404 -0.748506 0.357664 
     length 2.4234 
     axis 0 0 0  XYZ
  end
  begin
     id 2 
     name lfemur
     direction 0.34202 -0.939693 0  
     length 7.14567  
     axis 0 0 20  XYZ
    dof rx ry rz
    limits (-160.0 20.0)
           (-70.0 70.0)
           (-60.0 70.0)
  end
  begin
     id 3 
     name ltibia
     direction 0.34202 -0.939693 0   
     length 8.13956   
     axis 0 0 20   XYZ
    dof rx
    limits (-10.0 170.0)
  end
  begin
     id 4 
     name lfoot
     direction 0.0791314 -0.217412 0.972867   
     length 2.00134   
     axis -90 7.62852e-016 20   XYZ
    dof rx rz
    limits (-45.0 90.0)
           (-70.0 20.0)
  end
  begin
     id 5 
     name ltoes
     direction 1.53547e-011 -4.21922e-011 1   
     length 1.00735   
     axis -90 7.62852e-016 20   XYZ
    dof rx
    limits (-90.0 20.0)
  end
  begin
     id 6 
     name rhipjoint
     direction -0.496392 -0.78327 0.374276   
     length 2.31584  
     axis 0 0 0  XYZ 
  end
  begin
     id 7 
     name rfemur
     direction -0.34202 -0.939693 0   
     length 7.47417   
     axis 0 0 -20   XYZ
    dof rx ry rz
    limits (-160.0 20.0)
           (-70.0 70.0)
           (-70.0 60.0)
  end
  begin
     id 8 
     name rtibia
     direction -0.34202 -0.939693 0   
     length 7.69071   
     axis 0 0 -20   XYZ
    dof rx
    limits (-10.0 170.0)
 end
 begin
     id 9 
     name rfoot
     direction -0.103069 -0.28318 0.953512   
     length 2.16135  
     axis -90 -7.62852e-016 -20   XYZ
    dof rx rz
    limits (-45.0 90.0)
           (-20.0 70.0)
  end
  begin
     id 10 
     name rtoes
     direction -1.53581e-011 -4.21904e-011 1   
     length 1.07867   
     axis -90 -7.62852e-016 -20   XYZ
    dof rx
    limits (-90.0 20.0)
  end
  begin
     id 11 
     name lowerback
     direction -0.0258961 0.994776 -0.0987407   
     length 2.19412   
     axis 0 0 0   XYZ
    dof rx ry rz
    limits (-20.0 45.0)
           (-30.0 30.0)
           (-30.0 30.0)
  end
  begin
     id 12 
     name upperback
     direction 0.0402454 0.999185 0.00320666   
     length 2.18445   
     axis 0 0 0   XYZ
    dof rx ry rz
    limits (-20.0 45.0)
           (-30.0 30.0)
           (-30.0 30.0)
  end
  begin
     id 13 
     name thorax
     direction 0.0519376 0.997415 0.0496558   
     length 2.21487   
     axis 0 0 0   XYZ
    dof rx ry rz
    limits (-20.0 45.0)
           (-30.0 30.0)
           (-30.0 30.0)
  end
  begin
     id 14 
     name lowerneck
     direction -0.0921276 0.983211 0.157506   
     length 1.61201   
     axis 0 0 0   XYZ
    dof rx ry rz
    limits (-20.0 45.0)
           (-30.0 30.0)
           (-30.0 30.0)
  end
  begin
     id 15 
     name upperneck
     direction 0.0820814 0.98162 -0.172292   
     length 1.65275   
     axis 0 0 0   XYZ
    dof rx ry rz
    limits (-20.0 45.0)
           (-30.0 30.0)
           (-30.0 30.0)
  end
  begin
     id 16
     name head
     direction 0.0336554 0.996413 -0.0776455  
     length 1.66415  
     axis 0 0 0   XYZ
    dof rx ry rz
    limits (-20.0 45.0)
           (-30.0 30.0)
           (-30.0 30.0)
  end
  begin
     id 17 
     name lclavicle
     direction 0.94696 0.284418 -0.149576  
     length 3.41447  
     axis 0 0 0   XYZ
    dof ry rz
    limits (-20.0 10.0)
           (0.0 20.0)
  end
  begin
     id 18 
     name lhumerus
     direction 1 -0.000130264 -9.81312e-005   
     length 5.19964   
     axis 180 -30 -90   XYZ
    dof rx ry rz
    limits (-60.0 90.0)
           (-90.0 90.0)
           (-90.0 90.0)
  end
  begin
     id 19
     name lradius
     direction 1 -4.48961e-011 1.43854e-026   
     length 3.32189   
     axis 180 -30 -90   XYZ
    dof rx
    limits (-10.0 170.0)
  end
  begin
     id 20
     name lwrist
     direction 1 -4.48958e-011 3.1502e-026   
     length 1.66095   
     axis -1.97692e-014 90 90   XYZ
    dof ry
    limits (-180.0 0.0)
 end
  begin
     id 21 
     name lhand
     direction 1 -4.48927e-011 6.3004e-026   
     length 0.645616   
     axis -4.02019e-014 90 90   XYZ
    dof rx rz
    limits (-90.0 90.0)
           (-45.0 45.0)
  end
  begin
     id 22 
     name lfingers
     direction 1 -4.4904e-011 1.26008e-025   
     length 0.520512   
     axis -8.04039e-014 90 90   XYZ
    dof rx
    limits (0.0 90.0)
  end
  begin
     id 23
     name lthumb
     direction 0.707107 -6.34947e-011 0.707107   
     length 0.747354   
     axis -90 45 2.85299e-015   XYZ
    dof rx rz
    limits (-45.0 45.0)
           (-45.0 45.0)
  end
  begin
     id 24 
     name rclavicle
     direction -0.909391 0.383475 -0.161107   
     length 3.25176  
     axis 0 0 0   XYZ 
    dof ry rz
    limits (-10.0 20.0)
           (-20.0 0.0)
  end
  begin
     id 25 
     name rhumerus
     direction -1 -4.48965e-011 -1.81384e-027  
     length 5.6595   
     axis 180 30 90   XYZ
    dof rx ry rz
    limits (-90.0 60.0)
           (-90.0 90.0)
           (-90.0 90.0)
  end
  begin
     id 26 
     name rradius
     direction -1 -4.48996e-011 -8.09397e-027   
     length 3.37604   
     axis 180 30 90   XYZ
    dof rx
    limits (-10.0 170.0)
  end
  begin
     id 27 
     name rwrist
     direction -1 -4.48927e-011 -1.56669e-026   
     length 1.68802   
     axis 1.21142e-014 -90 -90   XYZ
    dof ry
    limits (-180.0 0.0)
  end
  begin
     id 28
     name rhand
     direction -1 -4.48912e-011 -3.13339e-026   
     length 0.824702   
     axis 1.99937e-014 -90 -90   XYZ
    dof rx rz
    limits (-90.0 90.0)
           (-45.0 45.0)
  end
  begin
     id 29
     name rfingers
     direction -1 -4.49011e-011 -6.26677e-026   
     length 0.664896   
     axis 3.99874e-014 -90 -90   XYZ
    dof rx
    limits (0.0 90.0)
  end
  begin
     id 30
     name rthumb
     direction -0.707107 -6.34931e-011 0.707107   
     length 0.954662   
     axis -90 -45 -2.85299e-015   XYZ
    dof rx rz
    limits (-45.0 45.0)
           (-45.0 45.0)
  end
:hierarchy
  begin
    root lhipjoint rhipjoint lowerback
    lhipjoint lfemur
    lfemur ltibia
    ltibia lfoot
    lfoot ltoes
    rhipjoint rfemur
    rfemur rtibia
    rtibia rfoot
    rfoot rtoes
    lowerback upperback
    upperback thorax
    thorax lowerneck lclavicle rclavicle
    lowerneck upperneck
    upperneck head
    lclavicle lhumerus
    lhumerus lradius
    lradius lwrist
    lwrist lhand lthumb
    lhand lfingers
    rclavicle rhumerus
    rhumerus rradius
    rradius rwrist
    rwrist rhand rthumb
    rhand rfingers
  end

#!OML:ASF F:\VICON\USERDATA\INSTALL\rory3\rory3.ASF
:FULLY-SPECIFIED
:DEGREES
201
root 9.52816 17.772 -14.3153 4.56559 -43.0603 -3.96613
lowerback 2.07183 -1.82877 -2.08231
upperback -2.60255 -2.41658 4.31517
thorax -3.58056 -1.10171 5.77669
lowerneck -12.4358 -5.45702 -14.301
upperneck 21.3162 -7.47963 11.9876
head 9.78568 -3.49177 5.68139
rclavicle -1.01877e-014 7.15625e-015
rhumerus -38.1908 -23.8463 -62.0398
rradius 32.9016
rwrist -14.4076
rhand -11.1824 17.5376
rfingers 7.12502
rthumb 14.8448 -11.9107
lclavicle -1.01877e-014 7.15625e-015
lhumerus -25.8271 9.53944 76.4955
lradius 27.2201
lwrist -9.90479
lhand -0.766233 31.2602
lfingers 7.12502
lthumb 24.8563 59.6643
rfemur -17.5777 7.83989 14.1508
rtibia 35.5116
rfoot -17.2957 -0.550961
rtoes 8.85703
lfemur -8.86874 0.0558046 -19.1538
ltibia 34.3807
lfoot -25.4125 17.5018
ltoes 5.29382
202
root 9.52967 17.7701 -14.3162 4.51379 -43.333 -3.91927
lowerback 2.20189 -1.99843 -2.29518
upperback -2.64615 -2.65078 4.37661
thorax -3.6614 -1.20984 5.98093
lowerneck -12.7949 -5.3844 -14.2958
upperneck 21.8137 -7.39351 12.0371
head 10.0186 -3.44154 5.72236
rclavicle -2.33324e-014 -7.15625e-015
rhumerus -38.2986 -23.7616 -61.8347
rradius 32.7824
rwrist -14.6923
rhand -11.2432 17.4012
rfingers 7.12502
rthumb 14.7862 -12.0513
lclavicle -2.33324e-014 -7.15625e-015
lhumerus -25.8547 9.0479 76.705
lradius 27.3528
lwrist -9.80105
lhand -1.58766 30.7249
lfingers 7.12502
lthumb 24.0688 59.2355
rfemur -17.6084 8.14789 14.0943
rtibia 35.5415
rfoot -17.2365 -0.549379
rtoes 9.0233
lfemur -8.82712 0.324893 -19.2041
ltibia 34.4126
lfoot -25.528 17.467
ltoes 5.21689
203
root 9.53104 17.7678 -14.3178 4.50609 -43.7181 -3.88885
lowerback 2.19855 -2.01614 -2.40364
upperback -2.63486 -2.67929 4.37575
thorax -3.63986 -1.22192 6.0426
lowerneck -12.8626 -5.4435 -14.3381
upperneck 21.8973 -7.48004 12.0781
head 10.0784 -3.48044 5.73442
rclavicle -2.81777e-014 1.82882e-014
rhumerus -38.4943 -24.1642 -61.4851
rradius 32.6054
rwrist -15.008
rhand -11.3507 17.3797
rfingers 7.12502
rthumb 14.6826 -12.0804
lclavicle -2.81777e-014 1.82882e-014
lhumerus -25.7917 8.31528 77.0535
lradius 27.5483
lwrist -9.92295
lhand -2.05665 30.4691
lfingers 7.12502
lthumb 23.6191 59.0384
rfemur -17.7455 8.41196 14.041
rtibia 35.6072
rfoot -17.1809 -0.45401
rtoes 9.16111
lfemur -8.80202 0.705478 -19.2544
ltibia 34.4102
lfoot -25.5554 17.4358
ltoes 5.44088
204
root 9.53176 17.765 -14.3172 4.3889 -43.8959 -3.72283
lowerback 2.19221 -2.07151 -2.59207
upperback -2.62908 -2.76146 4.35818
thorax -3.61294 -1.25878 6.13455
lowerneck -13.1232 -5.5208 -13.7859
upperneck 22.1382 -7.50289 11.2764
head 10.1632 -3.51926 5.34076
rclavicle 6.5748e-014 1.51076e-014
rhumerus -38.7605 -24.3391 -61.1549
rradius 32.48
rwrist -15.4379
rhand -11.7709 17.5015
rfingers 7.12502
rthumb 14.2778 -11.9877
lclavicle 6.5748e-014 1.51076e-014
lhumerus -25.7396 8.28332 77.2773
lradius 27.9515
lwrist -10.3383
lhand -1.31165 30.7881
lfingers 7.12502
lthumb 24.3335 59.2635
rfemur -17.8307 8.5025 13.9154
rtibia 35.684
rfoot -17.1509 -0.545923
rtoes 7.78756
lfemur -8.76945 0.940983 -19.394
ltibia 34.3936
lfoot -25.4833 17.4348
ltoes 5.15634
205
root 9.53624 17.7623 -14.3149 4.23562 -43.9655 -3.56788
lowerback 2.32911 -2.22977 -2.80217
upperback -2.66196 -2.9821 4.39002
thorax -3.68605 -1.36041 6.30611
lowerneck -13.7035 -5.51183 -12.8913
upperneck 22.7749 -7.33658 9.92436
head 10.3901 -3.49579 4.7192
rclavicle -1.08934e-013 -9.54166e-015
rhumerus -38.9669 -24.2342 -60.9161
rradius 32.4012
rwrist -15.6692
rhand -12.4329 17.3866
rfingers 7.12502
rthumb 13.6398 -12.1465
lclavicle -1.08934e-013 -9.54166e-015
lhumerus -25.6609 8.31713 77.4331
lradius 28.2707
lwrist -10.421
lhand -0.387762 30.946
lfingers 7.12502
lthumb 25.2189 59.2995
rfemur -17.8256 8.57758 13.7792
rtibia 35.7483
rfoot -17.1526 -0.577868
rtoes 7.44736
lfemur -8.70662 0.940405 -19.536
ltibia 34.3738
lfoot -25.4239 17.5018
ltoes 4.96645
206
root 9.54293 17.7599 -14.3123 4.15958 -44.0149 -3.5572
lowerback 2.50976 -2.4189 -2.89417
upperback -2.6895 -3.2397 4.45111
thorax -3.77617 -1.48308 6.44589
lowerneck -13.5859 -5.51355 -12.8667
upperneck 22.7529 -7.31136 9.73243
head 10.3478 -3.50658 4.64862
rclavicle 7.65321e-015 -3.49861e-014
rhumerus -39.1768 -24.5536 -60.4986
rradius 32.1875
rwrist -15.141
rhand -12.5383 17.1633
rfingers 7.12502
rthumb 13.5382 -12.3766
lclavicle 7.65321e-015 -3.49861e-014
lhumerus -25.582 8.28894 77.5599
lradius 28.5389
lwrist -10.3049
lhand 0.186268 30.9236
lfingers 7.12502
lthumb 25.7688 59.1986
rfemur -17.7841 8.63141 13.7445
rtibia 35.7961
rfoot -17.1991 -0.452314
rtoes 8.39412
lfemur -8.61435 0.91265 -19.5648
ltibia 34.3504
lfoot -25.4574 17.5226
ltoes 4.90056
207
root 9.54601 17.7561 -14.3019 4.08148 -44.1947 -3.54189
lowerback 2.5359 -2.49744 -2.87134
upperback -2.67195 -3.34483 4.43942
thorax -3.76068 -1.53732 6.4257
lowerneck -12.4354 -5.59249 -13.9862
upperneck 21.6704 -7.60187 11.213
head 9.88556 -3.60796 5.33294
rclavicle -1.23097e-013 -1.74931e-014
rhumerus -39.5091 -24.9307 -59.9683
rradius 31.9863
rwrist -14.9785
rhand -12.3363 16.9644
rfingers 7.12502
rthumb 13.733 -12.5625
lclavicle -1.23097e-013 -1.74931e-014
lhumerus -25.5089 7.99703 77.7715
lradius 28.8972
lwrist -10.0558
lhand 0.0254212 30.6704
lfingers 7.12502
lthumb 25.6147 58.9676
rfemur -17.7641 8.76604 13.7153
rtibia 35.8416
rfoot -17.201 -0.514649
rtoes 7.59239
lfemur -8.46024 0.906568 -19.6546
ltibia 34.3185
lfoot -25.5715 17.6271
ltoes 5.08916
208
root 9.54732 17.7524 -14.2856 4.01556 -44.4681 -3.52488
lowerback 2.46828 -2.52877 -2.77741
upperback -2.63925 -3.38361 4.39733
thorax -3.6905 -1.56256 6.32347
lowerneck -13.0778 -5.70772 -13.0141
upperneck 22.3489 -7.60259 9.77946
head 10.1519 -3.66018 4.64672
rclavicle 3.41413e-014 -2.94201e-014
rhumerus -39.9082 -24.9525 -59.5324
rradius 31.965
rwrist -15.5522
rhand -12.1686 16.9735
rfingers 7.12502
rthumb 13.8945 -12.5423
lclavicle 3.41413e-014 -2.94201e-014
lhumerus -25.3815 7.4218 78.0145
lradius 29.2162
lwrist -9.71502
lhand -0.361188 30.3826
lfingers 7.12502
lthumb 25.2444 58.7326
rfemur -17.7798 8.94164 13.6658
rtibia 35.9023
rfoot -17.1603 -0.589803
rtoes 6.14227
lfemur -8.30428 0.871483 -19.7862
ltibia 34.2728
lfoot -25.6596 17.8464
ltoes 5.43388
209
root 9.54857 17.7498 -14.2788 3.83127 -44.6386 -3.32523
lowerback 2.46446 -2.61246 -2.94552
upperback -2.59704 -3.5041 4.3672
thorax -3.62124 -1.62127 6.39021
lowerneck -13.4029 -5.71414 -12.9133
upperneck 22.5993 -7.5699 9.60508
head 10.289 -3.64814 4.57046
rclavicle 5.48894e-014 3.18055e-015
rhumerus -40.222 -25.1231 -59.0838
rradius 31.9106
rwrist -15.6307
rhand -11.7294 17.1816
rfingers 7.12502
rthumb 14.3178 -12.3047
lclavicle 5.48894e-014 3.18055e-015
lhumerus -25.1167 7.26612 78.1253
lradius 29.3916
lwrist -10.0171
lhand 0.101925 30.4387
lfingers 7.12502
lthumb 25.688 58.7254
rfemur -17.8111 8.97527 13.485
rtibia 35.9711
rfoot -17.1772 -0.519367
rtoes 5.84312
lfemur -8.212 0.889962 -19.9958
ltibia 34.2399
lfoot -25.5763 18.0429
ltoes 4.58624
210
root 9.54953 17.7473 -14.2761 3.56271 -44.7118 -2.99708
lowerback 2.45154 -2.75689 -3.28555
upperback -2.52331 -3.71288 4.3624
thorax -3.49001 -1.72214 6.58297
lowerneck -13.5711 -5.69408 -13.1154
upperneck 22.6962 -7.52345 9.77727
head 10.3662 -3.62234 4.67442
rclavicle -1.71452e-014 1.11319e-014
rhumerus -40.3357 -25.7877 -58.497
rradius 31.6379
rwrist -14.8824
rhand -11.3213 17.2282
rfingers 7.12502
rthumb 14.711 -12.2299
lclavicle -1.71452e-014 1.11319e-014
lhumerus -24.8647 7.35363 78.2658
lradius 29.6212
lwrist -10.4304
lhand 0.33299 30.5591
lfingers 7.12502
lthumb 25.9093 58.8137
rfemur -17.8116 9.06786 13.2071
rtibia 36.0299
rfoot -17.2528 -0.575798
rtoes 5.88463
lfemur -8.15123 0.69293 -20.305
ltibia 34.2365
lfoot -25.6137 18.2172
ltoes 4.36019
211
root 9.55273 17.7445 -14.2708 3.66845 -44.7667 -3.23983
lowerback 2.52215 -2.92082 -3.23388
upperback -2.47786 -3.92978 4.50146
thorax -3.44709 -1.83378 6.71162
lowerneck -13.6771 -5.65698 -13.0264
upperneck 22.8455 -7.42982 9.53714
head 10.4151 -3.59641 4.58601
rclavicle 2.49475e-014 -1.98785e-014
rhumerus -40.5144 -26.9164 -57.5912
rradius 31.2691
rwrist -13.5494
rhand -11.2117 17.1634
rfingers 7.12502
rthumb 14.8165 -12.287
lclavicle 2.49475e-014 -1.98785e-014
lhumerus -24.8845 7.42365 78.5189
lradius 30.082
lwrist -10.3836
lhand -0.117844 30.6409
lfingers 7.12502
lthumb 25.4775 58.9578
rfemur -17.7421 9.26843 13.401
rtibia 36.0472
rfoot -17.2631 -0.734267
rtoes 5.7298
lfemur -8.10636 0.749977 -20.1096
ltibia 34.2921
lfoot -25.7516 18.034
ltoes 5.48486
212
root 9.55631 17.7415 -14.2667 3.95372 -44.88 -3.78468
lowerback 2.64629 -3.03097 -2.94993
upperback -2.42144 -4.06525 4.64496
thorax -3.4485 -1.90953 6.71289
lowerneck -13.4732 -5.7165 -13.2303
upperneck 22.6695 -7.54484 9.78385
head 10.3461 -3.64536 4.69374
rclavicle 4.81804e-014 -4.53229e-014
rhumerus -40.4635 -24.2407 -58.8499
rradius 32.051
rwrist -16.4914
rhand -12.3177 16.2783
rfingers 7.12502
rthumb 13.7509 -13.2473
lclavicle 4.81804e-014 -4.53229e-014
lhumerus -24.9726 7.81397 78.6423
lradius 30.5995
lwrist -10.7991
lhand -0.30227 30.4955
lfingers 7.12502
lthumb 25.3008 58.8375
rfemur -17.627 9.48166 13.8588
rtibia 35.9956
rfoot -17.133 -0.824826
rtoes 5.75688
lfemur -8.06602 1.05341 -19.6378
ltibia 34.426
lfoot -25.9683 17.6464
ltoes 7.08568
